<svg width="10" height="6" viewBox="0 0 10 6" fill="none" xmlns="http://www.w3.org/2000/svg">
<path d="M10 5.2201V1.27812C10 1.15712 9.8721 1.05908 9.71434 1.05908H8.28566C8.12784 1.05908 8 1.15712 8 1.27812V5.2201C8 5.34115 8.12784 5.43914 8.28566 5.43914H9.71429C9.8721 5.43914 10 5.34115 10 5.2201Z" fill="#828282"/>
<path d="M4.26671 5.43925H5.73335C5.88063 5.43925 6 5.33108 6 5.19745V0.362355C6 0.228778 5.88063 0.120605 5.73335 0.120605H4.26671C4.11937 0.120605 4 0.228778 4 0.362355V5.19745C4 5.33108 4.11931 5.43925 4.26671 5.43925Z" fill="#828282"/>
<path d="M0.285706 1.99805C0.127841 1.99805 0 2.10804 0 2.24386V5.19366C0 5.32953 0.127841 5.43952 0.285706 5.43952H1.71429C1.87216 5.43952 2 5.32953 2 5.19366V2.24386C2 2.10804 1.87216 1.99805 1.71429 1.99805H0.285706Z" fill="#828282"/>
</svg>

