<svg width="21" height="20" viewBox="0 0 21 20" fill="none" xmlns="http://www.w3.org/2000/svg">
<path d="M0.8417 19.9998H20.1583C20.4163 19.9998 20.6568 19.8935 20.8183 19.7082C20.9585 19.5475 21.0206 19.3436 20.994 19.1342C20.541 15.5712 18.3711 12.6021 15.4004 11.019C14.1448 12.2868 12.4115 13.072 10.5 13.072C8.58859 13.072 6.85515 12.2868 5.59962 11.019C2.62892 12.6016 0.458566 15.5712 0.00601013 19.1342C-0.0206257 19.3436 0.0418628 19.5479 0.181722 19.7082C0.343144 19.8935 0.583712 19.9998 0.8417 19.9998Z" fill="url(#paint0_linear)"/>
<path d="M6.14733 10.2489C6.26005 10.3682 6.37776 10.4819 6.4996 10.592C7.56385 11.5532 8.96338 12.1429 10.5 12.1429C12.0366 12.1429 13.4361 11.5527 14.5003 10.592C14.6222 10.4819 14.74 10.3681 14.8526 10.2489C14.9648 10.1295 15.0743 10.0074 15.1773 9.87928C16.0111 8.83676 16.5133 7.51293 16.5133 6.07154C16.5133 2.72347 13.8154 6.51361e-09 10.4999 6.51361e-09C7.18436 6.51361e-09 4.48661 2.7239 4.48661 6.07146C4.48661 7.51285 4.9888 8.83676 5.82263 9.87919C5.9252 10.0074 6.03462 10.1291 6.14733 10.2489Z" fill="url(#paint1_linear)"/>
<defs>
<linearGradient id="paint0_linear" x1="24.36" y1="4.99981" x2="-0.728963" y2="20.5951" gradientUnits="userSpaceOnUse">
<stop stop-color="#282696" stop-opacity="0.96"/>
<stop offset="1" stop-color="#09ABE4"/>
</linearGradient>
<linearGradient id="paint1_linear" x1="22.2599" y1="5.53287e-07" x2="0.0733478" y2="11.393" gradientUnits="userSpaceOnUse">
<stop stop-color="#282696" stop-opacity="0.96"/>
<stop offset="1" stop-color="#09ABE4"/>
</linearGradient>
</defs>
</svg>

