<svg width="18" height="21" viewBox="0 0 18 21" fill="none" xmlns="http://www.w3.org/2000/svg">
<path d="M16.8541 5.72972C16.8477 5.64424 16.7764 5.57812 16.6909 5.57812H13.7455V4.75781C13.7455 2.13429 11.6166 0 9 0C6.38345 0 4.25453 2.13429 4.25453 4.75781V5.57812H1.30907C1.22365 5.57812 1.15231 5.64424 1.14593 5.72972L0.000469199 20.8235C-0.00296717 20.8689 0.0125783 20.9139 0.0436693 20.9473C0.0745967 20.981 0.118124 21 0.163615 21H17.8364C17.8819 21 17.9254 20.981 17.9563 20.9475C17.9873 20.914 18.003 20.8691 17.9995 20.8236L16.8541 5.72972ZM5.56363 4.75781C5.56363 2.85813 7.10509 1.3125 9 1.3125C10.8949 1.3125 12.4364 2.85813 12.4364 4.75781V5.57812H5.56363V4.75781ZM4.90908 10.1719C4.00663 10.1719 3.27271 9.43589 3.27271 8.53125C3.27271 7.87648 3.59999 7.28651 4.25453 7.02762V8.53125C4.25453 8.89317 4.54826 9.1875 4.90908 9.1875C5.2699 9.1875 5.56363 8.89317 5.56363 8.53125V7.0286C6.21818 7.28749 6.54545 7.88189 6.54545 8.53125C6.54545 9.43589 5.81154 10.1719 4.90908 10.1719ZM13.0909 10.1719C12.1885 10.1719 11.4546 9.43589 11.4546 8.53125C11.4546 7.87648 11.7818 7.28651 12.4364 7.02762V8.53125C12.4364 8.89317 12.7301 9.1875 13.0909 9.1875C13.4517 9.1875 13.7455 8.89317 13.7455 8.53125V7.0286C14.4 7.28749 14.7273 7.88189 14.7273 8.53125C14.7273 9.43589 13.9934 10.1719 13.0909 10.1719Z" fill="url(#paint0_linear)"/>
<defs>
<linearGradient id="paint0_linear" x1="24" y1="-1.75" x2="-7.5471" y2="18.2389" gradientUnits="userSpaceOnUse">
<stop stop-color="#282696" stop-opacity="0.96"/>
<stop offset="1" stop-color="#09ABE4"/>
</linearGradient>
</defs>
</svg>

