<svg width="216" height="54" viewBox="0 0 216 54" fill="none" xmlns="http://www.w3.org/2000/svg">
<path fill-rule="evenodd" clip-rule="evenodd" d="M153.272 8.53998V22.081H163.763V8.53998C163.722 4.76872 160.366 3.34767 158.511 3.30668C156.533 3.30668 153.272 4.94636 153.272 8.53998ZM158.511 0C163.218 0 167.037 3.90789 167.037 8.56731V22.081L170.353 25.3603H146.642L149.984 22.081L149.998 8.49899C149.998 3.75759 153.873 0 158.511 0Z" fill="#09ABE4"/>
<path fill-rule="evenodd" clip-rule="evenodd" d="M93.3003 25.3601L96.438 3.4841C96.7109 1.48916 97.584 0.478027 99.0301 0.478027C100.299 0.478027 101.172 1.29787 101.649 2.93754L107.147 20.4548L112.591 2.93754C113.068 1.29787 113.941 0.478027 115.224 0.478027C116.67 0.478027 117.529 1.48916 117.802 3.4841L120.94 25.3601H117.802L115.019 5.12378L109.385 23.1739C108.853 24.8409 108.102 25.6744 107.147 25.6744C106.602 25.6744 106.151 25.4831 105.81 25.0868C105.469 24.7042 105.156 24.062 104.855 23.1739L99.2347 5.12378L96.479 25.3601H93.3003Z" fill="#09ABE4"/>
<path fill-rule="evenodd" clip-rule="evenodd" d="M164.459 53.4124V32.0283H157.583V28.6533H174.65V32.0283H167.801V53.4124H164.459Z" fill="#282696"/>
<path fill-rule="evenodd" clip-rule="evenodd" d="M200.175 35.4308C204.363 31.8508 207.419 26.8635 208.551 21.2886H216C213.476 27.8336 209.001 33.4222 203.299 37.3301C209.001 41.2516 213.476 46.8402 216 53.3852H208.551C207.419 47.8103 204.363 42.8093 200.175 39.243C199.997 39.0791 199.97 39.0244 199.847 38.9561V35.7041C199.847 35.6767 200.093 35.5128 200.175 35.4308Z" fill="#282696"/>
<path fill-rule="evenodd" clip-rule="evenodd" d="M141.267 36.4965V50.0375V53.3169H137.966L137.979 50.0375L137.993 36.4555C138.006 31.7141 141.867 27.9565 146.519 27.9565C151.212 27.9565 155.032 31.8644 155.032 36.5239V50.0375L155.059 53.3169H151.744V50.0375H151.758V36.4965C151.731 32.7253 148.375 31.2906 146.519 31.2632C144.541 31.2632 141.267 32.9029 141.267 36.4965Z" fill="#282696"/>
<path fill-rule="evenodd" clip-rule="evenodd" d="M182.085 45.4326C182.085 39.8167 182.085 34.2145 182.085 28.5986H178.811V45.4736C178.811 50.215 182.672 53.959 187.324 53.959C189.288 53.959 191.103 53.2758 192.549 52.1416V53.3031H195.864V28.585H192.549V45.9519C192.221 49.3269 189.097 50.6249 187.324 50.6659C185.346 50.6659 182.085 49.0263 182.085 45.4326Z" fill="#282696"/>
<path fill-rule="evenodd" clip-rule="evenodd" d="M172.685 12.9808C172.685 15.6316 173.654 17.9408 175.591 19.9357C177.542 21.9307 179.875 22.9281 182.617 22.9281C185.359 22.9281 187.692 21.9307 189.629 19.9357C191.553 17.9408 192.508 15.6316 192.508 12.9808C192.508 10.3573 191.553 8.04808 189.629 6.05314C187.692 4.0582 185.359 3.06073 182.617 3.06073C179.902 3.06073 177.569 4.04453 175.618 6.02581C173.668 7.99342 172.685 10.3026 172.685 12.9808ZM192.549 0.573887H195.864V25.292H192.549V21.3568C192.317 21.6301 192.071 21.9033 191.798 22.1766C189.261 24.7728 186.205 26.0572 182.617 26.0572C179.111 26.0572 176.055 24.7864 173.463 22.2176C170.885 19.6488 169.589 16.5881 169.589 13.0081C169.589 9.51012 170.885 6.47672 173.463 3.88057C176.055 1.29808 179.111 0 182.617 0C186.205 0 189.261 1.28441 191.798 3.85324C192.071 4.11285 192.317 4.38613 192.549 4.67308V0.573887Z" fill="#09ABE4"/>
<path fill-rule="evenodd" clip-rule="evenodd" d="M111.404 40.9099C111.404 43.5607 112.372 45.8836 114.31 47.8785C116.247 49.8598 118.58 50.8573 121.335 50.8573C124.078 50.8573 126.41 49.8598 128.334 47.8785C130.258 45.8836 131.226 43.5607 131.226 40.9099C131.226 38.2864 130.258 35.9772 128.334 33.996C126.41 32.001 124.078 31.0035 121.335 31.0035C118.607 31.0035 116.274 31.9873 114.323 33.955C112.372 35.9226 111.404 38.2454 111.404 40.9099ZM124.76 12.9808C124.76 15.6316 125.728 17.9408 127.666 19.9357C129.603 21.9307 131.949 22.9281 134.691 22.9281C137.433 22.9281 139.766 21.9307 141.69 19.9357C143.613 17.9408 144.582 15.6316 144.582 12.9808C144.582 10.3573 143.613 8.04808 141.69 6.05314C139.766 4.0582 137.433 3.06073 134.691 3.06073C131.963 3.06073 129.63 4.04453 127.679 6.02581C125.728 7.99342 124.76 10.3026 124.76 12.9808ZM128.784 24.6361C128.648 24.6088 128.511 24.5951 128.361 24.5951C126.97 24.5951 125.824 25.7429 125.824 27.1366C125.824 27.9291 126.192 28.626 126.751 29.0906C128.116 29.7328 129.371 30.621 130.517 31.7824C133.054 34.3512 134.323 37.3983 134.323 40.9509C134.323 44.4762 133.054 47.5233 130.517 50.1194C127.979 52.7019 124.91 54 121.322 54C117.816 54 114.76 52.7156 112.181 50.1468C109.589 47.5779 108.293 44.5172 108.293 40.9509C108.293 37.4529 109.589 34.4059 112.181 31.8234C114.76 29.2272 117.816 27.9291 121.322 27.9291C121.868 27.9291 122.4 27.9701 122.918 28.0248C122.863 27.7379 122.836 27.4372 122.836 27.1366C122.836 25.0734 123.968 23.2697 125.646 22.3269C125.606 22.2859 125.578 22.2449 125.537 22.2176C122.945 19.6488 121.663 16.5881 121.663 13.0081C121.663 9.51012 122.945 6.47672 125.537 3.88057C128.129 1.29808 131.172 0 134.691 0C138.266 0 141.335 1.28441 143.873 3.85324C146.41 6.4084 147.679 9.46913 147.679 13.0081C147.679 16.5334 146.41 19.5941 143.873 22.1766C141.335 24.7728 138.266 26.0572 134.691 26.0572C132.55 26.0572 130.585 25.5926 128.784 24.6361Z" fill="#282696"/>
<path fill-rule="evenodd" clip-rule="evenodd" d="M53.219 1.06592C63.7782 1.06592 72.905 7.36501 77.0659 16.4106C70.3811 13.6368 63.1234 11.9834 55.5246 11.6828C54.7742 11.5735 53.9966 11.5189 53.219 11.5189C52.4687 11.5189 51.7456 11.5735 51.0362 11.6692C43.4238 11.9151 36.1524 13.5138 29.4403 16.2466C33.6422 7.29669 42.728 1.06592 53.219 1.06592Z" fill="#09ABE4"/>
<path fill-rule="evenodd" clip-rule="evenodd" d="M79.2759 23.8844C79.2896 23.8981 79.2896 23.8981 79.2896 23.9118C91.3631 30.1972 100.954 40.6638 106.111 53.3713H93.8597C91.7314 44.1344 86.4655 35.9087 79.3714 30.1015C77.9936 43.3009 66.7932 53.6446 53.2735 53.6446C39.6721 53.6446 28.4307 43.1916 27.1484 29.8966C19.9179 35.7174 14.4064 44.0251 12.2509 53.3713H0C5.21139 40.5135 15.0612 29.9102 27.3257 23.6521C27.3257 23.6658 27.3257 23.6658 27.3257 23.6795C31.2411 21.6845 35.4293 20.1268 39.7949 19.0884C38.3215 21.4932 37.462 24.3353 37.462 27.3551C37.462 36.0864 44.5561 43.1916 53.2735 43.1916C61.9774 43.1916 69.0851 36.0864 69.0851 27.3551C69.0851 24.3627 68.2392 21.5616 66.7932 19.1704C71.1724 20.2635 75.3606 21.8485 79.2759 23.8844Z" fill="#282696"/>
</svg>

